<?xml version="1.0" encoding="UTF-8"?><svg xmlns="http://www.w3.org/2000/svg" data-name="Слой 1" height="50.0" viewBox="0 0 511.5 511.5" width="50.0"><defs><linearGradient gradientTransform="rotate(-45 1731.212 -686.091)" gradientUnits="userSpaceOnUse" id="a" x1="-238.14" x2="225.02" y1="-601.61" y2="-601.61"><stop offset="0" stop-color="#008dff"/><stop offset="1" stop-color="#ac00af"/></linearGradient><linearGradient gradientTransform="rotate(-45 1731.212 -686.091)" gradientUnits="userSpaceOnUse" id="b" x1="-238.36" x2="273.12" y1="-728.35" y2="-728.35"><stop offset="0" stop-color="#0000b1"/><stop offset=".02" stop-color="#0003b2"/><stop offset=".28" stop-color="#0041c7"/><stop offset=".51" stop-color="#0072d8"/><stop offset=".72" stop-color="#0096e4"/><stop offset=".89" stop-color="#00abeb"/><stop offset="1" stop-color="#00b3ee"/></linearGradient></defs><path d="M594.4,396.9c-55.7.4-99.6,24.8-126,44a108,108,0,0,1,164.9,78.8,111,111,0,0,1-.8,31h0c-5.3,26-22,90.4-79.2,134.6-53.5,41.3-127.2,53.4-200.5,35.3,100.4,92.4,256.7,90,354-7.4a254.5,254.5,0,0,0,72.1-142.9,259.6,259.6,0,0,0,.1-75.2C731.4,433.4,663.8,396.5,594.4,396.9Z" fill="url(#a)" transform="translate(-270.2 -276.6)"/><path d="M706.8,351.5c-99.9-99.8-261.8-99.8-361.7,0C261.9,434.7,248,561,303.5,658.6a256.4,256.4,0,0,0,41.6,54.6l7.7,7.4c73.3,18.1,147,6,200.5-35.3,57.2-44.2,73.9-108.6,79.2-134.6h0A108.1,108.1,0,0,1,451,610.2l-1.5-1.4a107.9,107.9,0,0,1,18.9-167.9c26.4-19.2,70.3-43.6,126-44,69.4-.4,137,36.5,184.6,98.2A255.2,255.2,0,0,0,706.8,351.5Z" fill="url(#b)" transform="translate(-270.2 -276.6)"/></svg>